<?xml version="1.0" encoding="UTF-8"?>
<svg width="21px" height="17px" viewBox="0 0 21 17" version="1.1" xmlns="http://www.w3.org/2000/svg" xmlns:xlink="http://www.w3.org/1999/xlink">
    <!-- Generator: Sketch 55.1 (78136) - https://sketchapp.com -->
    <title>backward</title>
    <desc>Created with Sketch.</desc>
    <g id="Page-1" stroke="none" stroke-width="1" fill="none" fill-rule="evenodd">
        <g id="strength-A1" transform="translate(-69.000000, -538.000000)" fill="#A997DF" fill-rule="nonzero">
            <g id="backward" transform="translate(69.000000, 538.000000)">
                <path d="M19.9097935,0.00215743772 C19.6359845,0.00215743772 19.2733928,-0.0310370956 18.981559,0.168130104 L11.2464947,6.61747197 L11.2464947,1.21611712 C11.2464947,1.0085892 11.2512734,0.00207465833 10.1562886,0.00207465833 C9.88256335,0.00207465833 9.51997174,-0.031119875 9.22805404,0.168047325 L0.679694664,7.29551791 C-0.130917673,7.84798753 0.0092564743,8.50004074 0.0092564743,8.50004074 C0.0092564743,8.50004074 -0.130833836,9.15217674 0.679694664,9.70456357 L9.22805404,16.8320342 C9.51997174,17.0311186 9.88256335,16.997924 10.1562886,16.997924 C11.2513572,16.997924 11.2464947,16.0294052 11.2464947,15.7838816 L11.2464947,10.3826095 L18.981559,16.8320342 C19.2734767,17.0311186 19.6360683,16.997924 19.9097935,16.997924 C21.0048621,16.997924 21,16.0294052 21,15.7838816 L21,1.21611712 C21,1.00867198 21.0048621,0.00215743772 19.9097935,0.00215743772 Z" id="Path"></path>
            </g>
        </g>
    </g>
</svg>