<?xml version="1.0" encoding="UTF-8"?>
<svg width="360px" height="458px" viewBox="0 0 360 458" version="1.1" xmlns="http://www.w3.org/2000/svg" xmlns:xlink="http://www.w3.org/1999/xlink">
    <!-- Generator: Sketch 55.1 (78136) - https://sketchapp.com -->
    <title>Group</title>
    <desc>Created with Sketch.</desc>
    <g id="Page-1" stroke="none" stroke-width="1" fill="none" fill-rule="evenodd">
        <g id="coach-img" transform="translate(0.000000, -182.000000)" fill-rule="nonzero">
            <g id="Group" transform="translate(-57.000000, 182.000000)">
                <g id="coach-body-copy" transform="translate(0.000000, 117.000000)" fill="#13293D">
                    <path d="M206.29422,0 L269.747398,0 C269.979154,3.26413222 270.350192,4.69607255 270.350192,4.69607255 C270.350192,5.94026625 299.154594,24.0834933 329.023299,22.664809 C344.268232,22.0047794 364.95589,21.4623413 384.329264,45.705152 C384.329264,45.705152 502.781446,80.89535 470.390224,125.697703 C470.390224,125.697703 465.845151,146.371043 415.569067,181.375371 C410.493735,184.978981 400.990745,193.316596 397.555427,198.57028 C392.044526,207.010313 390.938558,216.595915 372.000753,229.553737 C372.000753,229.553737 367.73596,241.714972 360.172201,237.049246 C360.172201,237.049246 350.229853,239.602119 347.877778,235.421931 C347.877778,235.421931 337.961943,233.749098 336.992327,224.971463 C336.992327,224.971463 331.318561,224.971463 331.829882,216.595915 C331.829882,216.595915 337.776353,195.660839 353.066736,188.499138 L364.899077,187.262531 C364.899077,187.262531 387.226748,166.001234 389.991668,161.714835 C396.563086,151.461616 398.706846,133.743236 413.285168,118.604282 C413.285168,118.604282 346.241551,116.123481 332.057136,101.049012 C332.057136,101.049012 338.514927,128.675423 311.441441,176.406183 C311.441441,176.406183 299.537137,214.111321 304.820785,262.191062 C304.820785,262.191062 332.242726,312.034676 328.000658,355.528349 C328.000658,355.528349 346.680908,398.673042 328.000658,458.288127 C328.000658,458.288127 343.590259,538.022736 318.728709,599.625497 C318.728709,599.625497 305.305593,668.640314 320.205857,678.043839 C320.205857,678.043839 352.820545,704.445023 364.902864,703.151516 C364.902864,703.151516 373.458964,707.513781 369.216896,713.821995 C369.216896,713.821995 372.765841,720.702993 365.664164,722.595836 C365.664164,722.595836 356.460391,737.074761 311.002084,706.311313 C311.002084,706.311313 303.230009,703.147723 291.837026,708.204157 C291.837026,708.204157 267.017139,712.570214 273.410542,684.970357 C273.410542,684.970357 287.799486,632.835606 273.569619,592.069296 C273.569619,592.069296 259.491255,556.454251 260.771451,514.807902 C261.256259,499.585496 267.161066,493.326594 263.468194,467.065762 C260.494959,446.092753 242.481319,426.344971 238.019572,390.912004 C233.557825,426.344971 215.532823,446.092753 212.559587,467.065762 C208.85914,493.326594 214.782886,499.585496 215.256331,514.807902 C216.547889,556.450458 202.458162,592.069296 202.458162,592.069296 C188.258596,632.835606 202.61724,684.970357 202.61724,684.970357 C208.991705,712.570214 184.175606,708.204157 184.175606,708.204157 C172.805348,703.147723 164.999184,706.311313 164.999184,706.311313 C119.578753,737.033035 110.352255,722.595836 110.352255,722.595836 C103.258153,720.702993 106.799523,713.821995 106.799523,713.821995 C102.553667,707.563093 111.075679,703.151516 111.075679,703.151516 C123.150423,704.422263 155.784049,678.043839 155.784049,678.043839 C170.707039,668.640314 157.223322,599.625497 157.223322,599.625497 C132.376922,538.022736 147.989248,458.288127 147.989248,458.288127 C129.308997,398.623729 147.989248,355.528349 147.989248,355.528349 C143.713092,312.034676 171.157759,262.191062 171.157759,262.191062 C176.430043,214.111321 164.529527,176.406183 164.529527,176.406183 C137.440891,128.675423 143.93277,101.049012 143.93277,101.049012 C129.736992,116.123481 62.6479246,118.604282 62.6479246,118.604282 C77.2792726,133.697717 79.3700063,151.389544 85.9982379,161.714835 C88.766945,166.001234 111.079467,187.262531 111.079467,187.262531 L122.911807,188.499138 C138.262792,195.657046 144.21305,216.595915 144.21305,216.595915 C144.686495,224.971463 139.001366,224.971463 139.001366,224.971463 C138.080989,233.749098 128.138641,235.421931 128.138641,235.421931 C125.775203,239.556599 115.832856,237.049246 115.832856,237.049246 C108.269096,241.737732 104.000515,229.553737 104.000515,229.553737 C85.0551353,216.595915 83.9453799,206.964794 78.4458414,198.57028 C75.0218863,193.316596 65.5188958,184.933461 60.4473517,181.375371 C10.1712676,146.348284 5.59210636,125.697703 5.59210636,125.697703 C-26.7423015,80.8801769 91.6985172,45.7354982 91.6985172,45.7354982 C111.083254,21.4471682 131.770912,22.0351256 147.027208,22.6951552 C176.861825,24.0493538 205.688952,5.97440571 205.688952,4.72641874 C205.688952,4.72641874 206.062289,3.28560505 206.29422,1.2101431e-13 Z" id="Combined-Shape"></path>
                </g>
                <path d="M384.372515,162.25497 L351.855471,227.289058 C343.243309,224.914595 336.090848,221.882461 332.436723,218.021716 C332.436723,218.021716 338.912424,245.563014 311.763857,293.146724 C311.763857,293.146724 299.826539,330.735699 305.124839,378.667315 C305.124839,378.667315 310.020748,387.514434 315.361279,401 L160.848513,401 C166.191167,387.514434 171.091133,378.667315 171.091133,378.667315 C176.378039,330.735699 164.44452,293.146724 164.44452,293.146724 C137.28076,245.563014 143.790643,218.021716 143.790643,218.021716 C140.183834,221.82942 133.171957,224.831125 124.712071,227.190821 L92,162.153619 C111.267876,138.676941 131.749334,139.257893 146.893662,139.909254 C176.811019,141.259281 205.71809,123.240018 205.71809,121.995876 C205.71809,121.995876 206.114066,120.476614 206.344529,117 L269.934578,117 C270.164973,120.455177 270.558652,121.965623 270.558652,121.965623 C270.558652,123.205984 299.442934,141.293315 329.394473,139.879001 C344.555509,139.226436 365.084641,138.689173 384.372515,162.25497 Z" id="coach-shirt-copy" stroke="#EDE1E1" fill="#D9D4E8"></path>
                <g id="coach-m-icon-copy" transform="translate(172.000000, 0.000000)" fill="#13293D">
                    <path d="M73.1132326,76.779367 C73.1132326,78.4637796 69.704186,79.8253211 65.4969535,79.8253211 C61.2897209,79.8253211 57.8806744,78.4637796 57.8806744,76.779367 C57.8806744,75.0949543 61.2897209,73.7334128 65.4969535,73.7334128 C69.704186,73.7334128 73.1132326,75.0949543 73.1132326,76.779367 Z M118.241209,87.613826 L118.241209,112.109389 C118.241209,126.388823 104.988884,138 88.7144186,138 L42.2886279,138 C26.0050233,138 12.7618372,126.385777 12.7618372,112.109389 L12.7618372,87.6046881 C5.34967442,84.8755132 0,77.5012581 0,68.7867832 C0,62.5151636 2.77537209,56.9288836 7.08313953,53.2676467 C4.89269767,47.8428023 4.55453488,40.1152165 6.61397674,32.0738975 C9.76406977,19.7377831 16.2957907,16.6004503 23.1504419,17.7244074 C31.5435814,9.04343796 45.1706279,0 65.5,0 C85.6953256,0 99.3833023,9.06171368 107.858698,17.7244074 C114.707256,16.6034962 121.23593,19.7469209 124.386023,32.0769435 C126.442419,40.1152165 126.101209,47.8367104 123.919907,53.2615548 C128.227674,56.9258376 131,62.5212555 131,68.7898292 C130.996953,77.4921202 125.647279,84.8816051 118.241209,87.613826 Z M110.073512,48.1230301 C109.287512,41.348828 106.807651,35.5066879 103.033023,30.6849424 C102.865465,30.4686796 102.722279,30.2676467 102.551674,30.0513839 C94.4784186,20.1794464 80.9001163,14.7759237 65.4969535,14.7759237 C50.6665349,14.7759237 37.5513023,19.8139319 29.3836047,29.0035757 C27.8481628,30.8402861 26.599093,32.5673421 25.6668605,34.0172163 C23.1900465,38.1292544 21.5296977,42.8382996 20.9143023,48.1199841 L110.073512,48.1230301 L110.073512,48.1230301 Z M73.6037209,104.49755 L72.1566279,98.0370812 L58.9164884,98.0370812 L57.4358837,104.470136 C59.4648605,103.559396 62.3163953,102.986757 65.493907,102.986757 C68.7049302,102.986757 71.5716977,103.574626 73.6037209,104.49755 Z M118.810907,68.7837373 C118.810907,64.476758 115.776581,60.9860946 111.99586,60.9769567 C110.950907,62.7618858 109.759721,64.479804 108.39793,66.1185273 C109.534279,62.2136141 110.18014,58.2081843 110.305047,54.2179844 L104.736023,54.2179844 C104.726884,54.2575818 104.72993,54.3002251 104.717744,54.3428685 L101.671233,65.5276122 C101.12286,67.5166203 99.3223721,68.8964376 97.2629302,68.8964376 L77.9693721,68.8964376 C76.2968372,68.8964376 74.7553023,67.9796054 73.9632093,66.5114554 L67.870186,55.3267117 C67.6782558,54.973381 67.5350698,54.6017746 67.4406279,54.2179844 L63.5685116,54.2179844 C63.4771163,54.5987286 63.3339302,54.973381 63.1389535,55.3267117 L57.0459302,66.5114554 C56.2416512,67.9796054 54.7001163,68.8964376 53.0336744,68.8964376 L33.7401163,68.8964376 C31.6745814,68.8964376 29.8710465,67.5166203 29.331814,65.5276122 L26.2853023,54.3428685 C26.2731163,54.3032711 26.2761628,54.2606277 26.2670233,54.2179844 L20.6949535,54.2179844 C20.8198605,58.2142763 21.4657209,62.2136141 22.6020698,66.1185273 C21.2494186,64.48285 20.049093,62.7618858 19.007186,60.9769567 C15.2203721,60.9860946 12.1860465,64.476758 12.1860465,68.7837373 C12.1860465,73.0907165 15.2264651,76.5874719 19.0163256,76.5874719 C19.9668372,76.5874719 20.8564186,76.3742551 21.6789767,75.981327 C22.1603256,77.3855119 22.7361163,78.7470534 23.3484651,80.0933651 C24.2624186,80.8365779 25.1002093,81.9057079 25.9684651,83.3251225 C31.6380233,83.355582 38.6541395,86.0938948 44.9055814,91.2567872 C45.8591395,92.0426434 46.6816977,92.8193617 47.4463721,93.5899881 L48.1409767,90.5866773 C48.7837907,87.8209509 51.2453721,85.8624023 54.0786279,85.8624023 L77.0523721,85.8624023 C79.91,85.8624023 82.3776744,87.8392266 82.9991628,90.6262747 L83.6389302,93.4986095 C84.3822791,92.7553966 85.1774186,92.0060919 86.1005116,91.2567872 C92.7297209,85.7832075 100.215,83.026619 106.052116,83.3494901 C106.463395,82.2011654 106.975209,81.1716329 107.706372,80.3796848 C108.367465,78.9663621 108.985907,77.5225798 109.497721,76.0361542 C110.271535,76.380347 111.100186,76.5905178 111.983674,76.5905178 C115.770488,76.5905178 118.810907,73.0907165 118.810907,68.7837373 Z" id="Shape"></path>
                </g>
            </g>
        </g>
    </g>
</svg>