<?xml version="1.0" encoding="UTF-8"?>
<svg width="25px" height="25px" viewBox="0 0 25 25" version="1.1" xmlns="http://www.w3.org/2000/svg" xmlns:xlink="http://www.w3.org/1999/xlink">
    <!-- Generator: Sketch 55.1 (78136) - https://sketchapp.com -->
    <title>exit</title>
    <desc>Created with Sketch.</desc>
    <g id="Page-1" stroke="none" stroke-width="1" fill="none" fill-rule="evenodd">
        <g id="strength-A0-Copy" transform="translate(-4.000000, -4.000000)" fill="#A997DF" fill-rule="nonzero">
            <g id="exit" transform="translate(4.000000, 4.000000)">
                <path d="M15.471213,12.5000587 L24.3846318,3.58662939 C25.2051227,2.76613751 25.2051227,1.43586078 24.3846318,0.615486285 C23.5641409,-0.205005587 22.2339831,-0.205005587 21.4134922,0.615486285 L12.499956,9.52903297 L3.58641976,0.615368904 C2.76592885,-0.205122968 1.43577106,-0.205122968 0.615280147,0.615368904 C-0.205093382,1.43586078 -0.205093382,2.76613751 0.615280147,3.58651201 L9.52881637,12.4999413 L0.615280147,21.413488 C-0.205093382,22.2339799 -0.205093382,23.5642566 0.615280147,24.3846311 C1.43577106,25.205123 2.76592885,25.205123 3.58641976,24.3846311 L12.499956,15.4710844 L21.4134922,24.3846311 C22.2338657,25.205123 23.5641409,25.205123 24.3846318,24.3846311 C25.2051227,23.5641392 25.2051227,22.2339799 24.3846318,21.413488 L15.471213,12.5000587 Z" id="Path"></path>
            </g>
        </g>
    </g>
</svg>