<?xml version="1.0" encoding="UTF-8"?>
<svg width="25px" height="25px" viewBox="0 0 25 25" version="1.1" xmlns="http://www.w3.org/2000/svg" xmlns:xlink="http://www.w3.org/1999/xlink">
    <!-- Generator: Sketch 55.1 (78136) - https://sketchapp.com -->
    <title>music</title>
    <desc>Created with Sketch.</desc>
    <g id="Page-1" stroke="none" stroke-width="1" fill="none" fill-rule="evenodd">
        <g id="strength-A0-Copy" transform="translate(-331.000000, -4.000000)" fill="#A997DF" fill-rule="nonzero">
            <g id="music" transform="translate(331.000000, 4.000000)">
                <path d="M12.4789841,0 C5.5874502,0 0,5.5874502 0,12.4789841 C0,19.3705179 5.5874502,24.9579681 12.4789841,24.9579681 C19.3704183,24.9579681 24.9579681,19.3705179 24.9579681,12.4789841 C24.9579681,5.5874502 19.3704183,0 12.4789841,0 Z M17.8272908,16.0444223 C17.8272908,17.0289841 16.6299801,17.8270916 15.1530876,17.8270916 C13.6762948,17.8270916 12.4789841,17.0288845 12.4789841,16.0444223 C12.4789841,15.0598606 13.6761952,14.2616534 15.1530876,14.2616534 C15.4661355,14.2616534 15.7653386,14.2994024 16.0445219,14.365239 L16.0445219,8.91364542 C16.0445219,8.91364542 11.1727092,9.50169323 9.80507968,10.6963147 L9.80507968,17.8271912 C9.80507968,18.811753 8.60786853,19.6098606 7.1309761,19.6098606 C5.65418327,19.6098606 4.45687251,18.811753 4.45687251,17.8271912 C4.45687251,16.8426295 5.65408367,16.0445219 7.1309761,16.0445219 C7.4440239,16.0445219 7.74322709,16.0822709 8.02241036,16.1481076 L8.02241036,8.91364542 C8.02241036,8.91364542 7.97250996,7.20517928 8.6686255,6.77758964 C12.1446215,4.55488048 17.8156375,4.44203187 17.8272908,4.45677291 L17.8272908,16.0444223 L17.8272908,16.0444223 Z" id="Shape"></path>
            </g>
        </g>
    </g>
</svg>