<?xml version="1.0" encoding="UTF-8"?>
<svg width="21px" height="17px" viewBox="0 0 21 17" version="1.1" xmlns="http://www.w3.org/2000/svg" xmlns:xlink="http://www.w3.org/1999/xlink">
    <!-- Generator: Sketch 55.1 (78136) - https://sketchapp.com -->
    <title>forward</title>
    <desc>Created with Sketch.</desc>
    <g id="Page-1" stroke="none" stroke-width="1" fill="none" fill-rule="evenodd">
        <g id="strength-A1" transform="translate(-270.000000, -538.000000)" fill="#A997DF" fill-rule="nonzero">
            <g id="forward" transform="translate(270.000000, 538.000000)">
                <path d="M20.3203173,7.29551847 L11.771869,0.168047338 C11.4801188,-0.0311198773 11.117527,0.00207465849 10.8437178,0.00207465849 C9.74873236,0.00207465849 9.75359487,0.970593534 9.75359487,1.21611721 L9.75359487,6.6173897 L2.01844219,0.168047338 C1.72652433,-0.0311198773 1.3639325,0.00207465849 1.0902071,0.00207465849 C-0.00477830913,0.00215743788 0,0.970676314 0,1.21611721 L0,15.7838828 C0,15.9914107 -0.00477830913,16.9979253 1.0902071,16.9979253 C1.3639325,16.9979253 1.72652433,17.0311199 2.01844219,16.8319527 L9.75359487,10.3826103 L9.75359487,15.7838828 C9.75359487,15.9914107 9.74873236,16.9979253 10.8437178,16.9979253 C11.117527,16.9979253 11.4801188,17.0311199 11.771869,16.8319527 L20.3203173,9.70456431 C21.1308463,9.15201187 20.9907559,8.50004139 20.9907559,8.50004139 C20.9907559,8.50004139 21.1308463,7.84798813 20.3203173,7.29551847 Z" id="Path"></path>
            </g>
        </g>
    </g>
</svg>