<?xml version="1.0" encoding="UTF-8"?>
<svg width="289px" height="163px" viewBox="0 0 289 163" version="1.1" xmlns="http://www.w3.org/2000/svg" xmlns:xlink="http://www.w3.org/1999/xlink">
    <!-- Generator: Sketch 55.1 (78136) - https://sketchapp.com -->
    <title>strength image</title>
    <desc>Created with Sketch.</desc>
    <defs>
        <filter x="-4.3%" y="-7.7%" width="108.5%" height="115.5%" filterUnits="objectBoundingBox" id="filter-1">
            <feOffset dx="0" dy="2" in="SourceAlpha" result="shadowOffsetOuter1"></feOffset>
            <feGaussianBlur stdDeviation="2" in="shadowOffsetOuter1" result="shadowBlurOuter1"></feGaussianBlur>
            <feColorMatrix values="0 0 0 0 0   0 0 0 0 0   0 0 0 0 0  0 0 0 0.5 0" type="matrix" in="shadowBlurOuter1" result="shadowMatrixOuter1"></feColorMatrix>
            <feMerge>
                <feMergeNode in="shadowMatrixOuter1"></feMergeNode>
                <feMergeNode in="SourceGraphic"></feMergeNode>
            </feMerge>
        </filter>
    </defs>
    <g id="Page-1" stroke="none" stroke-width="1" fill="none" fill-rule="evenodd">
        <g id="strength-A1" transform="translate(-36.000000, -241.000000)" fill="#F2FF49" fill-rule="nonzero">
            <g id="strength-image" filter="url(#filter-1)" transform="translate(40.000000, 243.000000)">
                <path d="M279.832517,13.3382785 C278.096145,8.21271966 273.609553,1.78520919 262.099016,0.268194875 C255.093317,-0.655417056 249.392177,0.809202391 245.156766,4.62062471 C238.660727,10.4663084 237.687628,20.0241079 237.551395,23.4291653 L235.039585,24.5550458 C232.499798,21.9328652 229.278843,20.5121113 225.442402,20.3585821 C212.523306,19.8395073 183.490309,22.8625696 156.183953,37.4179869 C142.538074,37.5349615 125.655426,42.835373 118.135201,54.5078538 C110.217829,61.690216 83.6680579,73.6569611 80.2476172,75.1831141 C80.2275471,75.1825048 80.2068687,75.1825048 80.1855822,75.1825048 C77.2048604,75.1825048 62.0409475,75.8045416 47.2407301,87.7792069 C41.9263969,92.0792418 37.8314775,95.7030174 34.5417969,98.6151975 C28.3309969,104.112394 24.9093399,107.14094 21.4451098,107.488208 C19.4076852,107.692304 17.1111731,107.776989 14.6133514,107.741044 C10.7167007,107.672809 7.34187411,110.271229 6.39736054,114.047924 L0.15128565,139.078661 C-0.219708088,140.574961 0.0989816146,142.137668 1.02646596,143.36712 C1.9539503,144.595962 3.36737562,145.329491 4.90608736,145.379449 L11.1874371,145.574406 C13.3580545,145.644469 15.3006021,144.37298 16.1015836,142.336891 C16.9025652,140.300801 16.3594547,138.052696 14.7137021,136.607572 L13.3738674,135.43478 L20.0310763,128.97437 L19.7835444,129.96439 C19.4125507,131.46069 19.7312404,133.024007 20.6587247,134.253458 C21.5862091,135.482301 22.9996344,136.21522 24.5383461,136.265178 L30.8196958,136.460135 C30.8762572,136.461963 30.9328185,136.462572 30.9887717,136.462572 C33.1022196,136.462572 34.952931,135.205095 35.7332342,133.22262 C36.534824,131.186531 35.9917134,128.937816 34.3459609,127.492692 L33.005518,126.320509 L49.275722,110.530157 L76.648978,98.9843986 C78.9266362,99.1817932 88.5621343,99.8196703 94.4353909,97.1121958 C102.878843,96.753961 137.810641,86.6953641 146.044877,81.6197632 C158.69698,73.8202381 169.309225,68.9091328 174.434413,68.4814444 C178.875998,68.1079786 194.904752,65.9805031 206.236482,64.4458207 C206.206681,69.017578 206.252903,79.8072661 207.245464,85.9246721 C207.472317,87.3228841 207.445557,88.748512 207.165183,90.1607366 C205.7846,97.1207252 204.199666,112.783136 205.181279,124.295996 C205.511524,128.170779 208.57131,131.274871 212.385856,131.708652 C212.405926,135.605977 212.479516,138.9099 212.600545,141.089161 C212.981878,147.968121 214.5808,155 223.544861,155 C226.505512,155 237.051465,153.671851 245.37693,152.558155 C246.908343,152.35345 248.116202,151.300069 248.529768,149.809252 C248.937862,148.33854 248.432459,146.771568 247.242238,145.817494 C243.369915,142.714621 238.510505,140.915527 233.560475,140.751032 L225.831034,140.49515 C225.355432,140.47931 225.066543,140.211243 224.936999,140.05223 C224.807456,139.893218 224.601889,139.556307 224.680953,139.083535 C224.980789,137.287487 225.410169,134.815789 225.941115,131.998042 C227.903733,131.990731 229.944807,131.971235 232.03636,131.937118 C233.603656,131.912139 234.972076,131.004367 235.608239,129.568382 C236.241361,128.137271 235.995654,126.519122 234.965994,125.343893 C232.500406,122.529192 230.330397,120.853774 228.403662,120.274385 C229.613953,115.152481 231.008525,110.193855 232.482161,106.758335 C233.826861,103.628656 234.488568,100.307674 234.449036,96.8873852 C234.323749,86.3779486 233.966136,69.3027035 233.895586,65.9731922 C235.24576,63.8767881 240.169029,55.6958771 241.078876,46.6541062 L245.142778,45.1736465 L246.207104,47.3078236 C246.925981,48.7468549 248.16364,49.8112019 249.692013,50.3046885 C250.291076,50.4978184 250.905345,50.5940787 251.515964,50.5940787 C252.461086,50.5934695 253.397693,50.3643942 254.260101,49.9105084 C260.590714,46.5791694 271.82331,40.3776879 275.921878,36.2713921 C279.564915,32.6232469 282.813847,22.1339153 279.832517,13.3382785 Z M29.0419668,125.077045 C28.6758386,125.432843 28.4745289,125.926329 28.487909,126.436875 C28.5006809,126.948029 28.7275344,127.42994 29.1113001,127.766242 L31.9430162,130.243423 C32.6606762,130.87338 32.4277408,131.656257 32.3389456,131.881677 C32.2501504,132.105878 31.8974022,132.842452 30.9334267,132.806507 L24.6532934,132.611549 C24.0651771,132.592663 23.7221599,132.250878 23.5695051,132.048609 C23.4168503,131.84634 23.1814821,131.421089 23.3237978,130.849619 L24.9993515,124.152824 L31.1645376,118.169451 L39.9984458,114.443323 L29.0419668,125.077045 Z M94.0011457,93.4664874 C93.7177308,93.4664874 93.4385733,93.5322857 93.1849595,93.6596174 C87.6565446,96.4286254 76.6641826,95.3161483 76.5541009,95.3039634 C76.2451422,95.2722828 75.938008,95.3185852 75.6552013,95.4373876 L29.4330307,114.933154 C29.2244228,115.020885 29.0340604,115.146998 28.8716746,115.304792 L9.40970806,134.191316 C9.04297162,134.547113 8.84166191,135.039991 8.85504201,135.551145 C8.86781392,136.0623 9.09466747,136.544211 9.47843313,136.880513 L12.3095411,139.358303 C13.0272011,139.98826 12.7942657,140.771137 12.7054705,140.995947 C12.6166752,141.220758 12.2444651,141.945757 11.2999516,141.921408 L5.02042641,141.72582 C4.43231011,141.706934 4.08868476,141.365148 3.93602996,141.16288 C3.78337516,140.960611 3.548007,140.534751 3.69032263,139.962672 L9.93639753,114.935591 C10.4600461,112.841624 12.3198802,111.395282 14.4789422,111.395282 C14.504486,111.395282 14.530638,111.395282 14.55679,111.395891 C17.1920619,111.435492 19.6339306,111.342887 21.8081971,111.125387 C26.4431861,110.661144 30.1780591,107.355393 36.9575135,101.354962 C40.2204339,98.4671515 44.2812948,94.8726196 49.5329849,90.623761 C64.5831669,78.4468272 80.3984475,78.840398 80.5529268,78.8434442 C80.8333008,78.8562383 81.1033356,78.8014064 81.3551248,78.689915 C82.4808779,78.1939915 106.42457,67.6004794 117.548301,59.624274 C119.802848,64.6584464 125.716853,77.2636779 131.185666,83.8270495 C117.649868,88.4530293 98.767503,93.4664874 94.0011457,93.4664874 Z M144.132739,78.506533 C142.345887,79.6080438 139.025797,81.0123482 134.900468,82.5177869 C129.320358,76.6519982 122.450284,61.6682833 120.50652,57.2866098 C120.600789,57.2019251 121.003408,56.8034803 121.087946,56.6700562 C125.882888,49.0654888 138.353751,41.3987787 155.561171,41.0868464 C158.669003,47.007467 164.762423,60.6764362 163.547267,68.0488821 C156.664421,71.0347805 149.09554,75.4469161 144.132739,78.506533 Z M208.818234,123.984673 C207.907779,113.309522 209.352222,97.8950726 210.744969,90.872332 C211.110489,89.0305914 211.145155,87.1681364 210.847752,85.3373621 C209.872221,79.3253552 209.860057,68.0708148 209.891683,63.9486787 C211.822067,63.6860951 213.517691,63.4539736 214.849011,63.2712008 C214.769338,65.1330465 214.67142,67.1514676 214.568637,69.2527456 C214.124661,78.3523946 213.666088,87.746917 214.367327,91.5680872 C213.022627,96.7143603 212.422955,114.577965 212.382815,128.012376 C210.472501,127.610276 208.988526,125.983598 208.818234,123.984673 Z M232.223681,127.754667 C232.259564,127.794877 232.353833,127.903322 232.272336,128.086704 C232.18719,128.279224 232.030278,128.281661 231.978582,128.282271 C230.157672,128.311514 228.37751,128.329792 226.652693,128.33893 C226.945839,126.879185 227.259664,125.371918 227.591733,123.85003 C228.508879,124.210092 230.048807,125.272003 232.223681,127.754667 Z M237.53619,45.2290875 C236.966319,54.9361515 230.619286,64.3136151 230.556034,64.40622 C230.33952,64.7224169 230.227005,65.0983197 230.23552,65.4815333 C230.239777,65.6783187 230.661859,85.3215218 230.800525,96.9306414 C230.834584,99.8361199 230.272619,102.655695 229.130445,105.31443 C225.424765,113.951664 222.267669,131.386362 221.082314,138.480384 C220.850595,139.864584 221.226454,141.281682 222.11319,142.367962 C222.999926,143.453632 224.311176,144.103085 225.710613,144.149388 L233.440054,144.405269 C237.608564,144.543568 241.701051,146.058754 244.962755,148.672405 C244.995597,148.698603 245.040603,148.735157 245.014451,148.831418 C244.988907,148.922804 244.938427,148.930115 244.89403,148.935598 C233.449177,150.467234 225.667431,151.345762 223.545469,151.345762 C220.708887,151.345762 216.8244,151.345762 216.24419,140.886893 C215.596472,129.195526 216.346366,97.1207252 217.97813,92.2175399 C218.088212,91.8879396 218.101592,91.5333604 218.017054,91.1958399 C217.292704,88.2934077 217.802972,77.8357568 218.21289,69.4324722 C218.357638,66.4745989 218.493872,63.6806119 218.580235,61.2393764 C218.580843,61.2375487 218.580843,61.235721 218.580843,61.2338932 C218.647135,59.4640432 218.679369,58.0506001 218.679369,56.9125348 C218.679369,47.0306182 212.058651,45.4429317 211.776453,45.3801797 C210.799097,45.1626801 209.804104,45.7792337 209.585157,46.7643791 C209.366818,47.7495246 209.971964,48.7224852 210.955401,48.9418125 C211.122044,48.9850688 215.029642,50.0768317 215.029642,56.9125348 C215.029642,57.6588571 215.015046,58.5343388 214.985244,59.563959 C206.578283,60.7190832 179.982898,64.3477327 174.129711,64.8387823 C172.191421,65.0008408 169.862675,65.6198314 167.338701,66.5318677 C167.469461,62.2848369 166.21234,56.7261065 163.568553,49.9318319 C161.914286,45.6799271 160.136557,42.0262987 159.10933,40.0151885 C182.055597,28.1282542 209.327894,23.373115 225.295829,24.0122106 C228.327031,24.1334499 230.739706,25.2246035 232.671915,27.3478143 C238.094505,33.3049894 237.542272,45.1200331 237.53619,45.2290875 Z M273.342559,33.6863754 C270.597814,36.4352784 263.024068,41.1690942 252.563261,46.6742112 C252.018934,46.9599461 251.396759,47.0141687 250.811684,46.8253034 C250.223568,46.6352197 249.747966,46.2264178 249.471849,45.6732255 L247.680132,42.082349 C247.265349,41.2519512 246.2959,40.8644729 245.424368,41.1818883 L241.183484,42.7269278 C241.061239,39.1165555 240.381286,32.6153267 237.323325,27.5366796 L240.103345,26.2907783 C240.774783,25.9898124 241.199905,25.3153807 241.18166,24.5788063 C241.179227,24.4667056 240.990689,13.2834466 247.595594,7.34028412 C251.002655,4.27396562 255.72279,3.11518601 261.622806,3.89257969 C269.371102,4.91367045 274.33512,8.48748812 276.37741,14.5135077 C278.831442,21.7537479 276.1761,30.8485229 273.342559,33.6863754 Z" id="Shape"></path>
            </g>
        </g>
    </g>
</svg>