<?xml version="1.0" encoding="UTF-8"?>
<svg width="41px" height="33px" viewBox="0 0 41 33" version="1.1" xmlns="http://www.w3.org/2000/svg" xmlns:xlink="http://www.w3.org/1999/xlink">
    <!-- Generator: Sketch 55.1 (78136) - https://sketchapp.com -->
    <title>sound</title>
    <desc>Created with Sketch.</desc>
    <g id="Page-1" stroke="none" stroke-width="1" fill="none" fill-rule="evenodd">
        <g id="strength-A1" transform="translate(-4.000000, -603.000000)" fill="#00FFC5" fill-rule="nonzero">
            <g id="sound" transform="translate(4.000000, 603.000000)">
                <path d="M33.449531,0 L28.6716811,4.03925442 C32.3452653,7.02546813 34.6856558,11.4964267 34.6856558,16.5 C34.6856558,21.503715 32.3452653,25.9746736 28.6716811,28.9608873 L33.449531,33 C38.0773394,28.9084479 41,23.0410411 41,16.4998583 C41,9.95881721 38.0773394,4.09141041 33.449531,0 Z M25.4465035,6.76695585 L20.4799563,10.9677805 C22.6475413,11.9340835 24.3727329,14.0405901 24.3727329,16.5 C24.3727329,18.9594099 22.6475413,21.0659165 20.4799563,22.0322195 L25.4465035,26.2330442 C28.4951532,24.0055016 30.6079043,20.4808624 30.6079043,16.5 C30.6079043,12.5191376 28.49501,8.99449837 25.4465035,6.76695585 Z M15.5585074,3.05424326 L6.40625895,10.1582288 L2.56244631,10.1582288 C0.668744369,10.1582288 0,10.842351 0,12.6950223 L0,20.3051194 C0,22.1577908 0.708831807,22.8417712 2.56244631,22.8417712 L6.40625895,22.8417712 L15.5585074,29.93782 C16.6563305,30.6390912 17.9291067,30.8597621 17.9291067,28.8939916 L17.9291067,4.09821337 C17.9291067,2.13244288 16.6563305,2.35311373 15.5585074,3.05424326 Z" id="Shape"></path>
            </g>
        </g>
    </g>
</svg>