<?xml version="1.0" encoding="UTF-8"?>
<svg width="30px" height="33px" viewBox="0 0 30 33" version="1.1" xmlns="http://www.w3.org/2000/svg" xmlns:xlink="http://www.w3.org/1999/xlink">
    <!-- Generator: Sketch 55.1 (78136) - https://sketchapp.com -->
    <title>timer</title>
    <desc>Created with Sketch.</desc>
    <g id="Page-1" stroke="none" stroke-width="1" fill="none" fill-rule="evenodd">
        <g id="strength-A1" transform="translate(-327.000000, -603.000000)" fill="#00FFC5" fill-rule="nonzero">
            <g id="timer" transform="translate(327.000000, 603.000000)">
                <path d="M12.1734339,3 L17.3557536,3 C17.8554827,3 18.264214,2.62122983 18.264214,2.15898995 L18.264214,0.841010054 C18.264214,0.378770166 17.8554827,0 17.3557536,0 L12.1734339,0 C11.6737048,0 11.264214,0.378770166 11.264214,0.841010054 L11.264214,2.15898995 C11.2634568,2.62122983 11.6729465,3 12.1734339,3 Z" id="Path"></path>
                <path d="M14.764214,4 C10.7512044,4 7.11547443,5.63979855 4.48697734,8.28327287 L7.63951243,10.5591942 C9.53975592,8.84325473 12.0478004,7.78835688 14.8043649,7.78835688 C20.7113877,7.78835688 25.5170308,12.5935411 25.5170308,18.5 C25.5170308,24.4064589 20.71208,29.2116431 14.8043649,29.2116431 C8.89664983,29.2116431 4.09169901,24.4085354 4.09169901,18.5 C4.09169901,15.8869821 5.03455206,13.492004 6.59558997,11.6307046 L4.22807349,8.56914741 C1.77817853,11.1669372 0.264214047,14.6562679 0.264214047,18.5 C0.264214047,26.4954888 6.76865404,33 14.764214,33 C22.7597741,33 29.264214,26.4954888 29.264214,18.5 C29.2635218,10.5045112 22.7597741,4 14.764214,4 Z" id="Path"></path>
                <path d="M14.8327516,20.8165935 C14.1204986,20.8165935 13.4929097,20.4745642 13.0843721,19.9544646 L13.0803405,19.9598403 L7.9944512,13.3819914 C6.91330496,14.8078975 6.26421405,16.5778489 6.26421405,18.5010079 C6.26421405,23.1886241 10.0774552,27 14.764886,27 C19.4523168,27 23.264214,23.1872801 23.264214,18.5010079 C23.264214,13.8140638 19.4509729,10 14.764886,10 C12.724214,10 10.8495105,10.7237045 9.38267254,11.9271908 L15.9790757,16.6907388 L15.9750441,16.6961145 C16.6207753,17.0845093 17.0561903,17.785367 17.0561903,18.5937389 C17.0582061,19.8207439 16.0623959,20.8165935 14.8327516,20.8165935 Z" id="Path"></path>
            </g>
        </g>
    </g>
</svg>